<svg width="24" height="16" viewBox="0 0 24 16" fill="none" xmlns="http://www.w3.org/2000/svg">
<path fill-rule="evenodd" clip-rule="evenodd" d="M13.692 0H8.4V2.46154H12.708L15.108 4.92308H5.4C2.4 4.92308 0 7.38461 0 10.4615C0 13.5385 2.4 16 5.4 16C8.064 16 10.272 14.0062 10.704 11.4092L13.248 9.84615C13.2 10.0554 13.2 10.2523 13.2 10.4615C13.2 13.5385 15.6 16 18.6 16C21.6 16 24 13.5385 24 10.4615C24 7.38461 21.6 4.92308 18.6 4.92308H18.504L13.692 0ZM8.208 11.3969C7.8 12.64 6.696 13.5385 5.364 13.5385C3.708 13.5385 2.364 12.16 2.364 10.4615C2.364 8.76308 3.708 7.38462 5.364 7.38462C6.708 7.38462 7.8 8.29538 8.208 9.53846H4.8V11.3846L8.208 11.3969ZM15.564 10.4615C15.564 12.16 16.908 13.5385 18.564 13.5385C20.2209 13.5385 21.564 12.1609 21.564 10.4615C21.564 8.7622 20.2209 7.38462 18.564 7.38462C16.908 7.38462 15.564 8.76308 15.564 10.4615Z" fill="white"/>
</svg>
