<svg width="24" height="22" viewBox="0 0 24 22" fill="none" xmlns="http://www.w3.org/2000/svg">
<path fill-rule="evenodd" clip-rule="evenodd" d="M0 2.44444C0 1.1 1.12421 0 2.52632 0H20.2105C21.6058 0 22.7368 1.09442 22.7368 2.44444V5.23111C23.4821 5.65889 24 6.42889 24 7.33333V14.6667C24 15.5711 23.4821 16.3411 22.7368 16.7689V19.5556C22.7368 20.9056 21.6058 22 20.2105 22H2.52632C1.13107 22 0 20.9056 0 19.5556V2.44444ZM20.2105 2.44444H2.52632V19.5556H20.2105V17.1111H12.6316C11.2363 17.1111 10.1053 16.0167 10.1053 14.6667V7.33333C10.1053 5.9833 11.2363 4.88889 12.6316 4.88889H20.2105V2.44444ZM12.6316 7.33333H21.4737V14.6667H12.6316V7.33333ZM14.5263 11C14.5263 9.98748 15.3746 9.16667 16.4211 9.16667C17.4675 9.16667 18.3158 9.98748 18.3158 11C18.3158 12.0125 17.4675 12.8333 16.4211 12.8333C15.3746 12.8333 14.5263 12.0125 14.5263 11Z" fill="white"/>
</svg>
