<svg width="18" height="24" viewBox="0 0 18 24" fill="none" xmlns="http://www.w3.org/2000/svg">
<path fill-rule="evenodd" clip-rule="evenodd" d="M15.3945 9.95541C15.6993 10.2642 16.0086 10.5777 16.2765 10.9333L16.211 10.9467C16.6433 11.4533 16.997 12 17.259 12.6133L17.4293 12.96C18.6739 16 17.8223 19.5467 15.4642 21.76C13.3551 23.7333 10.4075 24.2533 7.65637 23.8933C5.07559 23.56 2.6782 21.9067 1.31576 19.6C0.896544 18.8933 0.555932 18.0933 0.372526 17.2933C0.149818 16.6267 0.0712153 15.96 0.0188135 15.2933C-0.164593 12.4 1.00135 9.33333 3.14982 7.52C2.16729 9.70667 2.4031 12.44 3.84414 14.3467C3.90965 14.44 3.96205 14.5067 4.04065 14.5733C4.27646 14.7867 4.59087 14.8667 4.87908 14.7333C5.14109 14.6267 5.3376 14.36 5.3376 14.0667C5.3376 13.8933 5.28519 13.76 5.23279 13.6267C3.66074 9.42667 4.97078 4.53333 8.2983 1.76C9.21533 1 10.3158 0.306667 11.5079 0C10.3158 2.46667 10.7088 5.68 12.6214 7.62667C13.0688 8.08199 13.5624 8.45897 14.0562 8.83616C14.4735 9.15483 14.8909 9.47365 15.2808 9.84C15.3186 9.87844 15.3565 9.91689 15.3945 9.95541ZM10.8005 20.1333C11.259 20 11.8485 19.6533 12.2153 19.3333H12.2022C12.9883 18.6 13.4468 17.4 13.4075 16.3067C13.4075 16.1067 13.3813 15.92 13.3289 15.7333C13.1158 14.5535 12.3814 13.893 11.62 13.2082C11.2112 12.8405 10.7946 12.4658 10.4468 12C10.1455 11.6 9.88345 11.0933 9.66074 10.5867C9.29393 11.5067 9.26773 12.3467 9.42494 13.3333C9.47381 13.628 9.54211 13.9105 9.60939 14.1889C9.77655 14.8805 9.93744 15.5461 9.77865 16.3067C9.51664 17.4933 8.59961 18.6667 7.04065 19.04C7.91838 19.92 9.35943 20.6667 10.8005 20.1333Z" fill="white"/>
</svg>
